<?xml version="1.0" encoding="UTF-8"?>
<svg xmlns="http://www.w3.org/2000/svg" xmlns:xlink="http://www.w3.org/1999/xlink" width="40pt" height="36pt" viewBox="0 0 40 36" version="1.1">
<g id="surface1">
<path style=" stroke:none;fill-rule:nonzero;fill:rgb(0%,0%,0%);fill-opacity:1;" d="M 38.890625 31.5 L 37.777344 31.5 L 37.777344 6.75 L 2.222656 6.75 L 2.222656 31.5 L 1.113281 31.5 C 0.5 31.5 0 32.003906 0 32.625 L 0 34.875 C 0 35.496094 0.5 36 1.113281 36 L 12.222656 36 C 12.835938 36 13.332031 35.496094 13.332031 34.875 L 13.332031 22.5 C 13.332031 18.773438 16.316406 15.75 20 15.75 C 23.683594 15.75 26.667969 18.773438 26.667969 22.5 L 26.667969 34.875 C 26.667969 35.496094 27.164062 36 27.777344 36 L 38.890625 36 C 39.503906 36 40 35.496094 40 34.875 L 40 32.625 C 40 32.003906 39.503906 31.5 38.890625 31.5 Z M 38.890625 0 L 1.109375 0 C 0.496094 0 0 0.503906 0 1.125 L 0 3.375 C 0 3.996094 0.496094 4.5 1.109375 4.5 L 38.890625 4.5 C 39.503906 4.5 40 3.996094 40 3.375 L 40 1.125 C 40 0.503906 39.503906 0 38.890625 0 Z M 38.890625 0 "/>
</g>
</svg>
