<?xml version="1.0" encoding="UTF-8"?>
<svg xmlns="http://www.w3.org/2000/svg" xmlns:xlink="http://www.w3.org/1999/xlink" width="20pt" height="22pt" viewBox="0 0 20 22" version="1.1">
<g id="surface1">
<path style=" stroke:none;fill-rule:nonzero;fill:rgb(0%,0%,0%);fill-opacity:1;" d="M 10.003906 6.058594 C 7.164062 6.058594 4.875 8.261719 4.875 10.996094 C 4.875 13.726562 7.164062 15.933594 10.003906 15.933594 C 12.84375 15.933594 15.132812 13.726562 15.132812 10.996094 C 15.132812 8.261719 12.84375 6.058594 10.003906 6.058594 Z M 10.003906 14.207031 C 8.167969 14.207031 6.667969 12.765625 6.667969 10.996094 C 6.667969 9.226562 8.164062 7.785156 10.003906 7.785156 C 11.84375 7.785156 13.339844 9.226562 13.339844 10.996094 C 13.339844 12.765625 11.839844 14.207031 10.003906 14.207031 Z M 16.539062 5.855469 C 16.539062 6.496094 16.003906 7.007812 15.34375 7.007812 C 14.679688 7.007812 14.148438 6.492188 14.148438 5.855469 C 14.148438 5.21875 14.683594 4.707031 15.34375 4.707031 C 16.003906 4.707031 16.539062 5.222656 16.539062 5.855469 Z M 19.9375 7.023438 C 19.863281 5.484375 19.496094 4.117188 18.320312 2.992188 C 17.152344 1.863281 15.730469 1.511719 14.128906 1.433594 C 12.476562 1.34375 7.527344 1.34375 5.875 1.433594 C 4.277344 1.507812 2.855469 1.859375 1.683594 2.984375 C 0.507812 4.113281 0.148438 5.476562 0.0664062 7.019531 C -0.0273438 8.609375 -0.0273438 13.375 0.0664062 14.964844 C 0.144531 16.507812 0.507812 17.875 1.683594 19 C 2.855469 20.125 4.273438 20.480469 5.875 20.554688 C 7.527344 20.648438 12.476562 20.648438 14.128906 20.554688 C 15.730469 20.484375 17.152344 20.132812 18.320312 19 C 19.492188 17.875 19.855469 16.507812 19.9375 14.964844 C 20.03125 13.375 20.03125 8.617188 19.9375 7.027344 Z M 17.804688 16.671875 C 17.457031 17.515625 16.78125 18.164062 15.902344 18.503906 C 14.585938 19.003906 11.460938 18.890625 10.003906 18.890625 C 8.550781 18.890625 5.417969 19 4.105469 18.503906 C 3.230469 18.167969 2.558594 17.519531 2.207031 16.671875 C 1.683594 15.40625 1.804688 12.398438 1.804688 10.996094 C 1.804688 9.59375 1.6875 6.582031 2.207031 5.320312 C 2.554688 4.476562 3.226562 3.828125 4.105469 3.488281 C 5.425781 2.988281 8.550781 3.101562 10.003906 3.101562 C 11.460938 3.101562 14.589844 2.992188 15.902344 3.488281 C 16.777344 3.824219 17.449219 4.472656 17.804688 5.320312 C 18.324219 6.585938 18.207031 9.59375 18.207031 10.996094 C 18.207031 12.398438 18.324219 15.410156 17.804688 16.671875 Z M 17.804688 16.671875 "/>
</g>
</svg>
