<?xml version="1.0" encoding="UTF-8"?>
<svg xmlns="http://www.w3.org/2000/svg" xmlns:xlink="http://www.w3.org/1999/xlink" width="20pt" height="22pt" viewBox="0 0 20 22" version="1.1">
<g id="surface1">
<path style=" stroke:none;fill-rule:nonzero;fill:rgb(0%,0%,0%);fill-opacity:1;" d="M 4.476562 19.25 L 0.332031 19.25 L 0.332031 6.398438 L 4.476562 6.398438 Z M 2.402344 4.644531 C 1.074219 4.644531 0 3.585938 0 2.3125 C 0 1.035156 1.074219 0 2.402344 0 C 3.726562 0 4.800781 1.035156 4.800781 2.3125 C 4.800781 3.585938 3.726562 4.644531 2.402344 4.644531 Z M 19.996094 19.25 L 15.859375 19.25 L 15.859375 12.992188 C 15.859375 11.503906 15.828125 9.589844 13.703125 9.589844 C 11.546875 9.589844 11.214844 11.210938 11.214844 12.886719 L 11.214844 19.25 L 7.074219 19.25 L 7.074219 6.398438 L 11.050781 6.398438 L 11.050781 8.152344 L 11.109375 8.152344 C 11.664062 7.140625 13.015625 6.074219 15.03125 6.074219 C 19.230469 6.074219 20 8.734375 20 12.191406 L 20 19.25 Z M 19.996094 19.25 "/>
</g>
</svg>
