<?xml version="1.0" encoding="UTF-8"?>
<svg xmlns="http://www.w3.org/2000/svg" xmlns:xlink="http://www.w3.org/1999/xlink" width="20pt" height="20pt" viewBox="0 0 20 20" version="1.1">
<g id="surface1">
<path style=" stroke:none;fill-rule:nonzero;fill:rgb(0%,0%,0%);fill-opacity:1;" d="M 17.945312 5.925781 C 17.957031 6.105469 17.957031 6.28125 17.957031 6.460938 C 17.957031 11.878906 13.832031 18.121094 6.292969 18.121094 C 3.972656 18.121094 1.816406 17.449219 0 16.28125 C 0.328125 16.320312 0.648438 16.332031 0.988281 16.332031 C 2.90625 16.332031 4.671875 15.683594 6.078125 14.582031 C 4.277344 14.542969 2.765625 13.363281 2.246094 11.738281 C 2.5 11.777344 2.753906 11.800781 3.019531 11.800781 C 3.386719 11.800781 3.757812 11.75 4.097656 11.664062 C 2.222656 11.28125 0.8125 9.632812 0.8125 7.640625 L 0.8125 7.589844 C 1.359375 7.894531 1.992188 8.082031 2.664062 8.109375 C 1.5625 7.375 0.835938 6.117188 0.835938 4.695312 C 0.835938 3.933594 1.039062 3.234375 1.394531 2.625 C 3.414062 5.113281 6.445312 6.738281 9.847656 6.917969 C 9.785156 6.613281 9.746094 6.292969 9.746094 5.976562 C 9.746094 3.71875 11.574219 1.878906 13.84375 1.878906 C 15.023438 1.878906 16.089844 2.375 16.839844 3.171875 C 17.765625 2.996094 18.65625 2.652344 19.441406 2.183594 C 19.136719 3.132812 18.488281 3.933594 17.640625 4.441406 C 18.464844 4.351562 19.265625 4.125 20 3.808594 C 19.441406 4.621094 18.742188 5.34375 17.945312 5.925781 Z M 17.945312 5.925781 "/>
</g>
</svg>
